<mxfile host="app.diagrams.net" agent="Mozilla/5.0 (Windows NT 10.0; Win64; x64) AppleWebKit/537.36 (KHTML, like Gecko) Chrome/127.0.0.0 Safari/537.36 OPR/113.0.0.0" version="24.7.17">
  <diagram name="Page-1" id="mSD0drr01BLcVkZO7ora">
    <mxGraphModel dx="2271" dy="980" grid="1" gridSize="10" guides="1" tooltips="1" connect="1" arrows="1" fold="1" page="1" pageScale="1" pageWidth="850" pageHeight="1100" math="0" shadow="0">
      <root>
        <mxCell id="0" />
        <mxCell id="1" parent="0" />
        <mxCell id="94c-P1cx0tsGvsUPKjFJ-1" value="Mulai" style="whiteSpace=wrap;strokeWidth=2;" parent="1" vertex="1">
          <mxGeometry x="742" y="20" width="99" height="48" as="geometry" />
        </mxCell>
        <mxCell id="94c-P1cx0tsGvsUPKjFJ-2" value="Menu Utama" style="whiteSpace=wrap;strokeWidth=2;" parent="1" vertex="1">
          <mxGeometry x="717" y="141" width="150" height="48" as="geometry" />
        </mxCell>
        <mxCell id="94c-P1cx0tsGvsUPKjFJ-3" value="Login" style="whiteSpace=wrap;strokeWidth=2;" parent="1" vertex="1">
          <mxGeometry x="839" y="262" width="98" height="48" as="geometry" />
        </mxCell>
        <mxCell id="94c-P1cx0tsGvsUPKjFJ-4" value="Pendaftaran Pengguna Baru" style="whiteSpace=wrap;strokeWidth=2;" parent="1" vertex="1">
          <mxGeometry x="399" y="262" width="257" height="48" as="geometry" />
        </mxCell>
        <mxCell id="94c-P1cx0tsGvsUPKjFJ-5" value="Keluar Sistem" style="whiteSpace=wrap;strokeWidth=2;" parent="1" vertex="1">
          <mxGeometry x="153" y="262" width="157" height="48" as="geometry" />
        </mxCell>
        <mxCell id="94c-P1cx0tsGvsUPKjFJ-6" value="Menampilkan Menu Berdasarkan Role" style="whiteSpace=wrap;strokeWidth=2;" parent="1" vertex="1">
          <mxGeometry x="789" y="382" width="197" height="66" as="geometry" />
        </mxCell>
        <mxCell id="94c-P1cx0tsGvsUPKjFJ-7" value="Terima Kasih" style="whiteSpace=wrap;strokeWidth=2;" parent="1" vertex="1">
          <mxGeometry x="156" y="391" width="152" height="48" as="geometry" />
        </mxCell>
        <mxCell id="94c-P1cx0tsGvsUPKjFJ-8" value="Menu Admin" style="whiteSpace=wrap;strokeWidth=2;" parent="1" vertex="1">
          <mxGeometry x="639" y="521" width="147" height="48" as="geometry" />
        </mxCell>
        <mxCell id="94c-P1cx0tsGvsUPKjFJ-9" value="Menu Penumpang" style="whiteSpace=wrap;strokeWidth=2;" parent="1" vertex="1">
          <mxGeometry x="1049" y="521" width="185" height="48" as="geometry" />
        </mxCell>
        <mxCell id="94c-P1cx0tsGvsUPKjFJ-10" value="Lihat Tiket Tersedia" style="whiteSpace=wrap;strokeWidth=2;" parent="1" vertex="1">
          <mxGeometry x="392" y="623" width="201" height="48" as="geometry" />
        </mxCell>
        <mxCell id="94c-P1cx0tsGvsUPKjFJ-11" value="Tambah Tiket" style="whiteSpace=wrap;strokeWidth=2;" parent="1" vertex="1">
          <mxGeometry x="20" y="623" width="157" height="48" as="geometry" />
        </mxCell>
        <mxCell id="94c-P1cx0tsGvsUPKjFJ-12" value="Perbarui Tiket" style="whiteSpace=wrap;strokeWidth=2;" parent="1" vertex="1">
          <mxGeometry x="787" y="623" width="161" height="48" as="geometry" />
        </mxCell>
        <mxCell id="94c-P1cx0tsGvsUPKjFJ-13" value="Hapus Tiket" style="whiteSpace=wrap;strokeWidth=2;" parent="1" vertex="1">
          <mxGeometry x="998" y="623" width="144" height="48" as="geometry" />
        </mxCell>
        <mxCell id="94c-P1cx0tsGvsUPKjFJ-14" value="Beli Tiket" style="whiteSpace=wrap;strokeWidth=2;" parent="1" vertex="1">
          <mxGeometry x="1226" y="623" width="128" height="48" as="geometry" />
        </mxCell>
        <mxCell id="94c-P1cx0tsGvsUPKjFJ-15" value="Lihat Riwayat Pembelian" style="whiteSpace=wrap;strokeWidth=2;" parent="1" vertex="1">
          <mxGeometry x="1404" y="623" width="237" height="48" as="geometry" />
        </mxCell>
        <mxCell id="94c-P1cx0tsGvsUPKjFJ-16" value="Selesai" style="whiteSpace=wrap;strokeWidth=2;" parent="1" vertex="1">
          <mxGeometry x="177" y="521" width="109" height="48" as="geometry" />
        </mxCell>
        <mxCell id="94c-P1cx0tsGvsUPKjFJ-17" value="Belum login" style="curved=1;startArrow=none;endArrow=block;exitX=0.5;exitY=1.01;entryX=0.5;entryY=0;rounded=0;" parent="1" source="94c-P1cx0tsGvsUPKjFJ-1" target="94c-P1cx0tsGvsUPKjFJ-2" edge="1">
          <mxGeometry relative="1" as="geometry">
            <Array as="points" />
          </mxGeometry>
        </mxCell>
        <mxCell id="94c-P1cx0tsGvsUPKjFJ-18" value="1. Masuk" style="curved=1;startArrow=none;endArrow=block;exitX=1;exitY=0.89;entryX=1;entryY=0.07;rounded=0;" parent="1" source="94c-P1cx0tsGvsUPKjFJ-2" target="94c-P1cx0tsGvsUPKjFJ-3" edge="1">
          <mxGeometry relative="1" as="geometry">
            <Array as="points">
              <mxPoint x="1032" y="225" />
            </Array>
          </mxGeometry>
        </mxCell>
        <mxCell id="94c-P1cx0tsGvsUPKjFJ-19" value="2. Daftar" style="curved=1;startArrow=none;endArrow=block;exitX=0.14;exitY=1;entryX=0.7;entryY=-0.01;rounded=0;" parent="1" source="94c-P1cx0tsGvsUPKjFJ-2" target="94c-P1cx0tsGvsUPKjFJ-4" edge="1">
          <mxGeometry relative="1" as="geometry">
            <Array as="points">
              <mxPoint x="659" y="225" />
            </Array>
          </mxGeometry>
        </mxCell>
        <mxCell id="94c-P1cx0tsGvsUPKjFJ-20" value="3. Keluar" style="curved=1;startArrow=none;endArrow=block;exitX=0;exitY=0.67;entryX=0.5;entryY=-0.01;rounded=0;" parent="1" source="94c-P1cx0tsGvsUPKjFJ-2" target="94c-P1cx0tsGvsUPKjFJ-5" edge="1">
          <mxGeometry relative="1" as="geometry">
            <Array as="points">
              <mxPoint x="232" y="225" />
            </Array>
          </mxGeometry>
        </mxCell>
        <mxCell id="94c-P1cx0tsGvsUPKjFJ-21" value="Berhasil Login" style="curved=1;startArrow=none;endArrow=block;exitX=0.5;exitY=1;entryX=0.5;entryY=0.01;rounded=0;" parent="1" source="94c-P1cx0tsGvsUPKjFJ-3" target="94c-P1cx0tsGvsUPKjFJ-6" edge="1">
          <mxGeometry relative="1" as="geometry">
            <Array as="points" />
          </mxGeometry>
        </mxCell>
        <mxCell id="94c-P1cx0tsGvsUPKjFJ-22" value="Gagal Login" style="curved=1;startArrow=none;endArrow=block;exitX=0.1;exitY=-0.01;entryX=0.49;entryY=1;rounded=0;" parent="1" source="94c-P1cx0tsGvsUPKjFJ-3" target="94c-P1cx0tsGvsUPKjFJ-2" edge="1">
          <mxGeometry relative="1" as="geometry">
            <Array as="points">
              <mxPoint x="789" y="225" />
            </Array>
          </mxGeometry>
        </mxCell>
        <mxCell id="94c-P1cx0tsGvsUPKjFJ-23" value="Username Sudah Digunakan" style="curved=1;startArrow=none;endArrow=block;exitX=0.5;exitY=-0.01;entryX=0;entryY=0.86;rounded=0;" parent="1" source="94c-P1cx0tsGvsUPKjFJ-4" target="94c-P1cx0tsGvsUPKjFJ-2" edge="1">
          <mxGeometry relative="1" as="geometry">
            <Array as="points">
              <mxPoint x="527" y="225" />
            </Array>
          </mxGeometry>
        </mxCell>
        <mxCell id="94c-P1cx0tsGvsUPKjFJ-24" value="Pendaftaran Berhasil" style="curved=1;startArrow=none;endArrow=block;exitX=0.19;exitY=-0.01;entryX=0;entryY=0.7;rounded=0;" parent="1" source="94c-P1cx0tsGvsUPKjFJ-4" target="94c-P1cx0tsGvsUPKjFJ-2" edge="1">
          <mxGeometry relative="1" as="geometry">
            <Array as="points">
              <mxPoint x="330" y="225" />
            </Array>
          </mxGeometry>
        </mxCell>
        <mxCell id="94c-P1cx0tsGvsUPKjFJ-25" value="" style="curved=1;startArrow=none;endArrow=block;exitX=0.5;exitY=1;entryX=0.5;entryY=0;rounded=0;" parent="1" source="94c-P1cx0tsGvsUPKjFJ-5" target="94c-P1cx0tsGvsUPKjFJ-7" edge="1">
          <mxGeometry relative="1" as="geometry">
            <Array as="points" />
          </mxGeometry>
        </mxCell>
        <mxCell id="94c-P1cx0tsGvsUPKjFJ-26" value="Admin" style="curved=1;startArrow=none;endArrow=block;exitX=0.24;exitY=1.01;entryX=0.69;entryY=0;rounded=0;" parent="1" source="94c-P1cx0tsGvsUPKjFJ-6" target="94c-P1cx0tsGvsUPKjFJ-8" edge="1">
          <mxGeometry relative="1" as="geometry">
            <Array as="points">
              <mxPoint x="780" y="485" />
            </Array>
          </mxGeometry>
        </mxCell>
        <mxCell id="94c-P1cx0tsGvsUPKjFJ-27" value="Penumpang" style="curved=1;startArrow=none;endArrow=block;exitX=1;exitY=0.87;entryX=0.57;entryY=0;rounded=0;" parent="1" source="94c-P1cx0tsGvsUPKjFJ-6" target="94c-P1cx0tsGvsUPKjFJ-9" edge="1">
          <mxGeometry relative="1" as="geometry">
            <Array as="points">
              <mxPoint x="1174" y="485" />
            </Array>
          </mxGeometry>
        </mxCell>
        <mxCell id="94c-P1cx0tsGvsUPKjFJ-28" value="1. Lihat Tiket Tersedia" style="curved=1;startArrow=none;endArrow=block;exitX=0.5;exitY=1;entryX=1;entryY=0.02;rounded=0;" parent="1" source="94c-P1cx0tsGvsUPKjFJ-8" target="94c-P1cx0tsGvsUPKjFJ-10" edge="1">
          <mxGeometry relative="1" as="geometry">
            <Array as="points">
              <mxPoint x="713" y="596" />
            </Array>
          </mxGeometry>
        </mxCell>
        <mxCell id="94c-P1cx0tsGvsUPKjFJ-29" value="2. Tambah Tiket" style="curved=1;startArrow=none;endArrow=block;exitX=0;exitY=0.63;entryX=0.57;entryY=0;rounded=0;" parent="1" source="94c-P1cx0tsGvsUPKjFJ-8" target="94c-P1cx0tsGvsUPKjFJ-11" edge="1">
          <mxGeometry relative="1" as="geometry">
            <Array as="points">
              <mxPoint x="120" y="596" />
            </Array>
          </mxGeometry>
        </mxCell>
        <mxCell id="94c-P1cx0tsGvsUPKjFJ-30" value="3. Perbarui Informasi Tiket" style="curved=1;startArrow=none;endArrow=block;exitX=1;exitY=0.82;entryX=0.76;entryY=0;rounded=0;" parent="1" source="94c-P1cx0tsGvsUPKjFJ-8" target="94c-P1cx0tsGvsUPKjFJ-12" edge="1">
          <mxGeometry relative="1" as="geometry">
            <Array as="points">
              <mxPoint x="958" y="596" />
            </Array>
          </mxGeometry>
        </mxCell>
        <mxCell id="94c-P1cx0tsGvsUPKjFJ-31" value="4. Hapus Tiket" style="curved=1;startArrow=none;endArrow=block;exitX=1;exitY=0.67;entryX=0.88;entryY=0;rounded=0;" parent="1" source="94c-P1cx0tsGvsUPKjFJ-8" target="94c-P1cx0tsGvsUPKjFJ-13" edge="1">
          <mxGeometry relative="1" as="geometry">
            <Array as="points">
              <mxPoint x="1186" y="596" />
            </Array>
          </mxGeometry>
        </mxCell>
        <mxCell id="94c-P1cx0tsGvsUPKjFJ-32" value="0. Keluar" style="curved=1;startArrow=none;endArrow=block;exitX=0.44;exitY=0;entryX=0.23;entryY=1;rounded=0;" parent="1" source="94c-P1cx0tsGvsUPKjFJ-8" target="94c-P1cx0tsGvsUPKjFJ-2" edge="1">
          <mxGeometry relative="1" as="geometry">
            <Array as="points">
              <mxPoint x="691" y="485" />
              <mxPoint x="691" y="225" />
            </Array>
          </mxGeometry>
        </mxCell>
        <mxCell id="94c-P1cx0tsGvsUPKjFJ-33" value="1. Lihat Tiket Tersedia" style="curved=1;startArrow=none;endArrow=block;exitX=0;exitY=0.65;entryX=0.5;entryY=0;rounded=0;" parent="1" source="94c-P1cx0tsGvsUPKjFJ-9" target="94c-P1cx0tsGvsUPKjFJ-10" edge="1">
          <mxGeometry relative="1" as="geometry">
            <Array as="points">
              <mxPoint x="494" y="596" />
            </Array>
          </mxGeometry>
        </mxCell>
        <mxCell id="94c-P1cx0tsGvsUPKjFJ-34" value="2. Beli Tiket" style="curved=1;startArrow=none;endArrow=block;exitX=1;exitY=0.89;entryX=0.89;entryY=0;rounded=0;" parent="1" source="94c-P1cx0tsGvsUPKjFJ-9" target="94c-P1cx0tsGvsUPKjFJ-14" edge="1">
          <mxGeometry relative="1" as="geometry">
            <Array as="points">
              <mxPoint x="1396" y="596" />
            </Array>
          </mxGeometry>
        </mxCell>
        <mxCell id="94c-P1cx0tsGvsUPKjFJ-35" value="3. Lihat Riwayat Pembelian" style="curved=1;startArrow=none;endArrow=block;exitX=1;exitY=0.75;entryX=0.52;entryY=0;rounded=0;" parent="1" source="94c-P1cx0tsGvsUPKjFJ-9" target="94c-P1cx0tsGvsUPKjFJ-15" edge="1">
          <mxGeometry relative="1" as="geometry">
            <Array as="points">
              <mxPoint x="1534" y="596" />
            </Array>
          </mxGeometry>
        </mxCell>
        <mxCell id="94c-P1cx0tsGvsUPKjFJ-36" value="0. Keluar" style="curved=1;startArrow=none;endArrow=block;exitX=0.43;exitY=0;entryX=1;entryY=0.8;rounded=0;" parent="1" source="94c-P1cx0tsGvsUPKjFJ-9" target="94c-P1cx0tsGvsUPKjFJ-2" edge="1">
          <mxGeometry relative="1" as="geometry">
            <Array as="points">
              <mxPoint x="1110" y="485" />
              <mxPoint x="1110" y="225" />
            </Array>
          </mxGeometry>
        </mxCell>
        <mxCell id="94c-P1cx0tsGvsUPKjFJ-37" value="" style="curved=1;startArrow=none;endArrow=block;exitX=0;exitY=0.2;entryX=0;entryY=0.64;rounded=0;" parent="1" source="94c-P1cx0tsGvsUPKjFJ-10" target="94c-P1cx0tsGvsUPKjFJ-6" edge="1">
          <mxGeometry relative="1" as="geometry">
            <Array as="points">
              <mxPoint x="142" y="596" />
              <mxPoint x="142" y="485" />
            </Array>
          </mxGeometry>
        </mxCell>
        <mxCell id="94c-P1cx0tsGvsUPKjFJ-38" value="" style="curved=1;startArrow=none;endArrow=block;exitX=0.5;exitY=0;entryX=0;entryY=0.64;rounded=0;" parent="1" source="94c-P1cx0tsGvsUPKjFJ-11" target="94c-P1cx0tsGvsUPKjFJ-6" edge="1">
          <mxGeometry relative="1" as="geometry">
            <Array as="points">
              <mxPoint x="98" y="485" />
            </Array>
          </mxGeometry>
        </mxCell>
        <mxCell id="94c-P1cx0tsGvsUPKjFJ-39" value="" style="curved=1;startArrow=none;endArrow=block;exitX=0.47;exitY=0;entryX=0.43;entryY=1.01;rounded=0;" parent="1" source="94c-P1cx0tsGvsUPKjFJ-12" target="94c-P1cx0tsGvsUPKjFJ-6" edge="1">
          <mxGeometry relative="1" as="geometry">
            <Array as="points">
              <mxPoint x="856" y="596" />
              <mxPoint x="856" y="485" />
            </Array>
          </mxGeometry>
        </mxCell>
        <mxCell id="94c-P1cx0tsGvsUPKjFJ-40" value="" style="curved=1;startArrow=none;endArrow=block;exitX=0.2;exitY=0;entryX=0.72;entryY=1.01;rounded=0;" parent="1" source="94c-P1cx0tsGvsUPKjFJ-13" target="94c-P1cx0tsGvsUPKjFJ-6" edge="1">
          <mxGeometry relative="1" as="geometry">
            <Array as="points">
              <mxPoint x="980" y="596" />
              <mxPoint x="980" y="485" />
            </Array>
          </mxGeometry>
        </mxCell>
        <mxCell id="94c-P1cx0tsGvsUPKjFJ-41" value="" style="curved=1;startArrow=none;endArrow=block;exitX=0.42;exitY=0;entryX=1;entryY=0.78;rounded=0;" parent="1" source="94c-P1cx0tsGvsUPKjFJ-14" target="94c-P1cx0tsGvsUPKjFJ-6" edge="1">
          <mxGeometry relative="1" as="geometry">
            <Array as="points">
              <mxPoint x="1269" y="596" />
              <mxPoint x="1269" y="485" />
            </Array>
          </mxGeometry>
        </mxCell>
        <mxCell id="94c-P1cx0tsGvsUPKjFJ-42" value="" style="curved=1;startArrow=none;endArrow=block;exitX=0.29;exitY=0;entryX=1;entryY=0.7;rounded=0;" parent="1" source="94c-P1cx0tsGvsUPKjFJ-15" target="94c-P1cx0tsGvsUPKjFJ-6" edge="1">
          <mxGeometry relative="1" as="geometry">
            <Array as="points">
              <mxPoint x="1418" y="596" />
              <mxPoint x="1418" y="485" />
            </Array>
          </mxGeometry>
        </mxCell>
        <mxCell id="94c-P1cx0tsGvsUPKjFJ-43" value="" style="curved=1;startArrow=none;endArrow=block;exitX=0.5;exitY=1.01;entryX=0.5;entryY=0;rounded=0;" parent="1" source="94c-P1cx0tsGvsUPKjFJ-7" target="94c-P1cx0tsGvsUPKjFJ-16" edge="1">
          <mxGeometry relative="1" as="geometry">
            <Array as="points" />
          </mxGeometry>
        </mxCell>
        <mxCell id="lQ6aSXTtPSqjAQD8mB13-1" value="" style="whiteSpace=wrap;html=1;" parent="1" vertex="1">
          <mxGeometry x="580" y="250" width="120" height="60" as="geometry" />
        </mxCell>
      </root>
    </mxGraphModel>
  </diagram>
</mxfile>
